<?xml version="1.0" encoding="utf-8"?>
<!-- Generator: Adobe Illustrator 22.0.0, SVG Export Plug-In . SVG Version: 6.00 Build 0)  -->
<svg version="1.1" id="Layer_1" xmlns="http://www.w3.org/2000/svg" xmlns:xlink="http://www.w3.org/1999/xlink" x="0px" y="0px"
	 viewBox="0 0 32 32" style="enable-background:new 0 0 32 32;" xml:space="preserve">
<style type="text/css">
	.st0{fill:#FEFEFE;}
	.st1{fill:#FC0451;}
	.st2{fill:#01F1E9;}
	.st3{fill:#010101;}
	.st4{fill:#04F0E8;}
	.st5{fill:#FC0350;}
	.st6{fill:#F90752;}
	.st7{fill:#08EEE6;}
	.st8{fill:#12F1E9;}
	.st9{fill:#10F0E9;}
</style>
<g>
	<path class="st0" d="M16.1,0.1c0,5.7,0,11.3,0,17c0,1.4,0,2.7,0,4.1c-0.1,2.8-2.7,4.8-5.4,4.2c-0.3-0.1-0.5-0.1-0.8-0.2
		c0,0,0,0,0,0c0,0-0.1-0.1-0.1-0.1C9.7,25,9.6,25,9.6,24.9c0,0-0.1-0.1-0.1-0.1c0,0,0,0,0,0c-0.1-0.1-0.1-0.2-0.2-0.3
		c-1.4-2.6-0.1-5.8,2.8-6.5c0.8-0.2,1.6-0.2,2.4,0.1c0-1.7,0-3.4,0-5.1c0-0.1-0.2-0.2-0.3-0.3c-0.4,0-0.8-0.1-1.2-0.1
		c0-0.4,0-0.8,0-1.2c-1.1-0.1-2.1-0.1-3.1,0.1c-3.9,0.8-6.5,3.1-7.6,7c-1.1,3.9,0,7.2,3,9.9c0.1,0.1,0.3,0.2,0.5,0.3
		c0.3,0.3,0.7,0.6,1,0.9c0,0,0,0.1,0.1,0.1c1.3,1.1,2.7,1.8,4.4,2.1c0.5,0.1,1,0.2,1.5,0.3"/>
	<path class="st0" d="M13.6,32.1c0.1,0,0.2-0.1,0.3-0.1c1-0.2,1.9-0.3,2.9-0.7c3.8-1.4,6.1-5,6.1-9.1c0-3.3,0-6.7,0-10.1
		c0-0.1,0-0.3,0-0.5c1.2,0.8,2.3,1.4,3.5,1.7c1.2,0.4,2.5,0.6,3.8,0.6c0-1.8,0-3.5,0-5.2c-0.5-0.1-1-0.1-1.5-0.2c0,0,0,0,0,0
		c0-0.4,0-0.7,0-1.1c-1.2-0.1-2.3-0.3-3.3-0.8c-0.1,0-0.1,0-0.2,0c0,0,0,0,0,0c-0.1,0-0.1-0.1-0.2-0.1l0,0c0,0-0.1-0.1-0.1-0.1
		c-0.1-0.1-0.2-0.2-0.3-0.2c0,0-0.1-0.1-0.1-0.1c0,0,0,0,0,0c0,0-0.1-0.1-0.1-0.1l0,0c-0.1-0.1-0.1-0.2-0.2-0.3
		c-0.7-0.9-1.1-2-1.3-3.2c-0.1-0.4-0.1-0.8-0.1-1.2c-0.5,0-0.9,0-1.4,0c0,0,0,0-0.1,0c0,0,0-0.1,0-0.1c0-0.4,0-0.8,0-1.2"/>
	<path class="st1" d="M28.7,8.6c0.5,0.1,1,0.1,1.5,0.2c0,1.7,0,3.4,0,5.2c-1.3,0-2.5-0.2-3.8-0.6c-1.2-0.4-2.4-1-3.5-1.7
		c0,0.2,0,0.4,0,0.5c0,3.4,0,6.7,0,10.1c0,4.1-2.4,7.7-6.1,9.1c-0.9,0.3-1.9,0.5-2.9,0.7c-0.1,0-0.2,0.1-0.3,0.1c-0.3,0-0.5,0-0.8,0
		c-0.5-0.1-1-0.2-1.5-0.3c-1.6-0.3-3.1-1-4.4-2.1c0,0,0-0.1-0.1-0.1c0.2,0.1,0.4,0.1,0.6,0.2c3.6,1.8,8,1.1,10.9-1.7
		c2.1-2,3.1-4.4,3.1-7.2c0-3.3,0-6.7,0-10c0-0.1,0-0.3,0-0.5c2.2,1.5,4.6,2.3,7.3,2.3C28.7,11.3,28.7,9.9,28.7,8.6z"/>
	<path class="st2" d="M21.4,0.1c0,0.4,0,0.8,0,1.2c-1.1,0-2.2,0-3.3,0c-0.1,0-0.3,0.1-0.4,0.1c0,0,0,0,0,0c0,0.1-0.1,0.3-0.1,0.4
		c0,0.6,0,1.3,0,1.9c0,6.4,0,12.9,0,19.3c0,0.1,0,0.3-0.1,0.4c-0.6,2.3-2.8,3.7-5.1,3.3c-1-0.2-1.9-0.6-2.5-1.5
		c0.3,0.1,0.5,0.1,0.8,0.2c2.7,0.6,5.4-1.4,5.4-4.2c0-1.4,0-2.7,0-4.1c0-5.7,0-11.3,0-17C17.9,0.1,19.6,0.1,21.4,0.1z"/>
	<path class="st3" d="M9.8,25.2c0.6,0.9,1.5,1.3,2.5,1.5c2.3,0.4,4.5-1,5.1-3.3c0-0.1,0-0.3,0.1-0.4c0-0.2,0.1-0.5,0.1-0.7
		c0-5.4,0-10.8,0-16.2c0-1.6,0-3.1,0-4.7c0,0,0,0,0,0c1.3,0,2.5,0,3.8,0c0,0,0,0,0.1,0c0,0.1,0,0.1,0,0.2c0.4,1.8,1.3,3.3,2.8,4.4
		c0.1,0,0.1,0,0.2,0.1c0,0,0,0,0,0c0,0,0.1,0.1,0.1,0.1c0,0,0,0,0,0c0,0,0.1,0.1,0.1,0.1c0.1,0.1,0.2,0.2,0.3,0.2
		c0,0,0.1,0.1,0.1,0.1c0,0,0,0,0,0c0.1,0,0.1,0.1,0.2,0.1c0,0,0,0,0,0c0.1,0.1,0.1,0.2,0.2,0.2c1,0.9,2.1,1.4,3.3,1.7c0,0,0,0,0,0
		c0,1.4,0,2.7,0,4.1c-2.7,0-5.1-0.8-7.3-2.3c0,0.2,0,0.4,0,0.5c0,3.3,0,6.7,0,10c0,2.8-1,5.3-3.1,7.2c-2.9,2.7-7.3,3.4-10.9,1.7
		c-0.2-0.1-0.4-0.1-0.6-0.2c-0.3-0.3-0.7-0.6-1-0.9c-0.1-0.1-0.1-0.2-0.2-0.3c-1.4-1.7-2.1-3.7-2.1-5.9c0-2.7,0.9-5,2.8-6.9
		c1.8-1.9,4.1-2.9,6.7-2.9c0,1.4,0,2.7,0,4.1c-0.1,0-0.2,0-0.3-0.1C10.8,16.3,9,17,8,18.6c-1,1.5-1,3.6,0.1,5c0.4,0.5,0.8,1,1.4,1.2
		c0,0,0,0,0,0c0,0,0.1,0.1,0.1,0.1C9.6,25,9.7,25,9.8,25.2C9.8,25.1,9.8,25.1,9.8,25.2L9.8,25.2z"/>
	<path class="st4" d="M13,12.7c-2.6,0-4.9,1-6.7,2.9c-1.9,1.9-2.8,4.2-2.8,6.9c0,2.2,0.7,4.1,2.1,5.9c0.1,0.1,0.1,0.2,0.2,0.3
		c-0.2-0.1-0.4-0.2-0.5-0.3c-2.9-2.7-4-6.1-3-9.9c1.1-3.8,3.7-6.1,7.6-7c1-0.2,2-0.2,3.1-0.1C13,11.9,13,12.2,13,12.7
		C13,12.6,13,12.7,13,12.7z"/>
	<path class="st5" d="M13,12.7C13,12.7,13,12.6,13,12.7c0.4,0,0.9,0,1.3,0c0.1,0,0.3,0.2,0.3,0.3c0,1.7,0,3.4,0,5.1
		c-0.8-0.2-1.6-0.3-2.4-0.1c-2.8,0.7-4.2,3.9-2.8,6.5c0.1,0.1,0.1,0.2,0.2,0.3c-0.6-0.2-1.1-0.7-1.4-1.2c-1.1-1.5-1.1-3.5-0.1-5
		c1-1.5,2.9-2.3,4.7-1.9c0.1,0,0.2,0,0.3,0.1C13,15.4,13,14,13,12.7z"/>
	<path class="st5" d="M9.6,24.9C9.5,24.9,9.5,24.8,9.6,24.9C9.5,24.8,9.5,24.9,9.6,24.9z"/>
	<path class="st2" d="M9.8,25.2c0,0-0.1-0.1-0.1-0.1C9.8,25.1,9.8,25.1,9.8,25.2z"/>
	<path class="st6" d="M24.5,6c-0.1,0-0.2,0-0.2-0.1c-1.5-1.1-2.4-2.6-2.8-4.4c0-0.1,0-0.1,0-0.2c0.5,0,0.9,0,1.4,0
		c0,0.4,0,0.8,0.1,1.2c0.2,1.2,0.6,2.2,1.3,3.2C24.4,5.8,24.4,5.9,24.5,6z"/>
	<path class="st7" d="M28.6,8.5c-1.3-0.3-2.4-0.9-3.3-1.7c-0.1-0.1-0.1-0.1-0.2-0.2c0.1,0,0.1,0,0.2,0c1,0.5,2.1,0.8,3.3,0.8
		C28.6,7.8,28.6,8.2,28.6,8.5z"/>
	<path class="st8" d="M21.4,1.4c-1.3,0-2.5,0-3.8,0c0.1,0,0.3-0.1,0.4-0.1C19.2,1.3,20.3,1.3,21.4,1.4C21.4,1.3,21.4,1.3,21.4,1.4z"
		/>
	<path class="st7" d="M25.1,6.6c-0.1,0-0.1-0.1-0.2-0.1C25,6.5,25.1,6.6,25.1,6.6z"/>
	<path class="st6" d="M24.5,6.1c0,0-0.1-0.1-0.1-0.1C24.5,6,24.5,6.1,24.5,6.1z"/>
	<path class="st6" d="M24.6,6.2C24.6,6.1,24.6,6.1,24.6,6.2C24.6,6.1,24.6,6.1,24.6,6.2z"/>
	<path class="st7" d="M25,6.5C25,6.5,24.9,6.5,25,6.5C24.9,6.5,25,6.5,25,6.5z"/>
	<path class="st9" d="M17.6,1.4c0,1.6,0,3.1,0,4.7c0,5.4,0,10.8,0,16.2c0,0.2,0,0.5-0.1,0.7c0-6.4,0-12.9,0-19.3c0-0.6,0-1.3,0-1.9
		C17.5,1.6,17.6,1.5,17.6,1.4z"/>
</g>
</svg>
